<svg width="118" height="30" viewBox="0 0 118 30" fill="none" xmlns="http://www.w3.org/2000/svg">
<g clip-path="url(#clip0_749_1442)">
<path fill-rule="evenodd" clip-rule="evenodd" d="M29.0141 27.8232C30.8286 28.8376 32.8757 29.3514 34.9495 29.3132C37.0281 29.3497 39.08 28.836 40.9008 27.8232C42.6209 26.8645 44.0301 25.4249 44.9593 23.6772C45.9332 21.8184 46.4193 19.7386 46.371 17.6363C46.4105 15.5342 45.9074 13.458 44.9112 11.6116C43.9776 9.86722 42.5694 8.42866 40.8527 7.46561C39.0319 6.45275 36.9799 5.93904 34.9013 5.97563C32.8276 5.93733 30.7805 6.45123 28.966 7.46561C27.2589 8.43066 25.8616 9.86945 24.9396 11.6116C23.9434 13.458 23.4403 15.5342 23.4798 17.6363C23.4391 19.7437 23.9421 21.8256 24.9396 23.6772C25.8789 25.4227 27.2926 26.8612 29.0141 27.8232ZM38.8475 17.6363C38.8475 20.8754 37.5482 22.4949 34.9495 22.4949C32.3507 22.4949 31.0995 20.8754 31.0995 17.6363C31.0995 14.3972 32.3829 12.6967 34.9495 12.6967C37.5161 12.6967 38.8475 14.3486 38.8475 17.6363Z" fill="white"/>
<path fill-rule="evenodd" clip-rule="evenodd" d="M2.9299 11.6286C1.92699 13.4964 1.41865 15.5938 1.4541 17.7181C1.41646 19.8426 1.92493 21.9406 2.9299 23.8076C3.88609 25.5584 5.3234 26.9925 7.0686 27.9374C8.97403 28.9373 11.0976 29.4385 13.2445 29.395C14.8563 29.4455 16.4584 29.1243 17.9287 28.4556C19.1037 27.9171 20.1368 27.1071 20.9445 26.0911C21.5741 25.3025 21.9141 24.3183 21.9069 23.3055C21.9284 22.8856 21.8526 22.4664 21.6855 22.0813C21.5184 21.6961 21.2647 21.3556 20.9445 21.0867C20.3368 20.5616 19.5627 20.2742 18.7629 20.277C18.0202 20.316 17.3081 20.5877 16.7255 21.0543L16.0037 21.7022C15.6917 21.9888 15.3405 22.2288 14.961 22.4148C14.4089 22.6269 13.8178 22.7153 13.2285 22.6739C12.6485 22.7071 12.0687 22.6045 11.5345 22.3742C11.0002 22.1438 10.5259 21.7918 10.1486 21.3459C9.3792 20.3079 8.99845 19.0285 9.07378 17.7343C8.99845 16.4401 9.3792 15.1607 10.1486 14.1227C10.5266 13.6777 11.0011 13.3264 11.5351 13.0962C12.0693 12.8659 12.6487 12.7628 13.2285 12.7947C13.7808 12.7767 14.3297 12.8876 14.8327 13.1187C15.2508 13.341 15.6301 13.6309 15.9555 13.977C16.1874 14.2396 16.4395 14.4833 16.7095 14.7057C17.2931 15.1638 18.0077 15.4194 18.7467 15.4346C19.149 15.4306 19.5464 15.3455 19.9156 15.1842C20.2847 15.0229 20.6182 14.7886 20.8963 14.4952C21.2153 14.1963 21.4674 13.8324 21.6361 13.4275C21.8049 13.0226 21.8862 12.586 21.8749 12.1469C21.8876 11.1309 21.5534 10.1415 20.9284 9.34509C20.1156 8.33842 19.0835 7.53478 17.9127 6.99677C16.4342 6.33584 14.8288 6.015 13.2125 6.05743C11.0709 6.01667 8.9532 6.51775 7.05256 7.51501C5.3122 8.45346 3.87981 9.88269 2.9299 11.6286Z" fill="white"/>
<path fill-rule="evenodd" clip-rule="evenodd" d="M74.1545 11.6282C73.1516 13.4959 72.6433 15.5934 72.6787 17.7177C72.6411 19.8421 73.1496 21.9402 74.1545 23.8071C75.1165 25.5591 76.5592 26.9931 78.3093 27.9369C80.2099 28.9342 82.3276 29.4353 84.4692 29.3945C86.0859 29.4447 87.6934 29.1235 89.1694 28.4552C90.3394 27.9081 91.3704 27.0995 92.1851 26.0907C92.8032 25.2967 93.1364 24.3148 93.1313 23.305C93.1576 22.8814 93.0855 22.4575 92.9211 22.0668C92.7566 21.6761 92.5048 21.3293 92.1851 21.0539C91.5773 20.5287 90.8032 20.2413 90.0037 20.2441C89.2652 20.2649 88.5522 20.5199 87.9664 20.9729L87.2279 21.6207C86.9193 21.911 86.5674 22.1513 86.1859 22.3334C85.6416 22.5567 85.0556 22.6563 84.4692 22.6249C83.889 22.6593 83.3088 22.5574 82.7744 22.3269C82.2399 22.0964 81.7657 21.7438 81.3893 21.2968C80.6141 20.2611 80.2277 18.9814 80.2984 17.6853C80.2277 16.3891 80.6141 15.1095 81.3893 14.0737C81.7657 13.6267 82.2399 13.2741 82.7744 13.0437C83.3088 12.8132 83.889 12.7112 84.4692 12.7456C85.0217 12.7247 85.5713 12.8356 86.0732 13.0695C86.4962 13.2914 86.8811 13.5813 87.2126 13.9279C87.4441 14.185 87.6908 14.4284 87.9503 14.6567C88.5353 15.1127 89.2491 15.3681 89.9876 15.3855C90.804 15.3747 91.5832 15.0368 92.1529 14.4462C92.4666 14.144 92.7142 13.779 92.8804 13.3747C93.0457 12.9703 93.1262 12.5354 93.1152 12.0979C93.1364 11.0805 92.8015 10.0885 92.169 9.29606C91.356 8.28937 90.3242 7.48573 89.1533 6.94772C87.6798 6.28813 86.08 5.96728 84.4692 6.00839C82.3221 5.96491 80.1987 6.46608 78.2933 7.46598C76.5447 8.40624 75.1063 9.84163 74.1545 11.5958V11.6282Z" fill="white"/>
<path fill-rule="evenodd" clip-rule="evenodd" d="M117.755 17.7177C117.755 9.94397 114.546 6.05708 108.13 6.05708C106.391 6.03262 104.694 6.60346 103.318 7.67661V4.16222C103.382 1.37661 102.163 0 99.7084 0C97.2539 0 95.9864 1.37661 95.9864 4.16222V25.2162C95.9144 26.3296 96.2391 27.4324 96.9012 28.3257C97.2565 28.7108 97.6939 29.0097 98.1797 29.2004C98.6656 29.3911 99.1887 29.4686 99.7084 29.427C102.163 29.427 103.382 28.018 103.382 25.2162V18.1713C103.305 16.7501 103.558 15.3304 104.12 14.0252C104.463 13.6186 104.889 13.2921 105.37 13.0682C105.851 12.8443 106.374 12.7283 106.903 12.7283C107.432 12.7283 107.955 12.8443 108.435 13.0682C108.916 13.2921 109.342 13.6186 109.686 14.0252C110.237 15.3331 110.478 16.7526 110.392 18.1713V25.1676C110.392 27.9694 111.611 29.3784 114.065 29.3784C114.585 29.4212 115.108 29.3443 115.594 29.1535C116.081 28.9628 116.517 28.6631 116.873 28.2771C117.535 27.3838 117.859 26.281 117.787 25.1676V17.7177H117.755Z" fill="white"/>
<path fill-rule="evenodd" clip-rule="evenodd" d="M69.855 9.40952C69.8946 9.00675 69.8291 8.60055 69.6648 8.23129C69.5006 7.86207 69.2433 7.54276 68.9188 7.30519C68.5942 7.06761 68.2136 6.92007 67.8149 6.87725C67.4163 6.83444 67.0135 6.89786 66.6466 7.06118C61.8342 8.9884 61.4653 14.1061 61.4653 18.5275C61.4653 21.6694 61.6097 25.0057 59.5885 25.0057C57.5672 25.0057 57.8079 21.7666 57.8079 18.7867C57.8079 14.1223 57.5993 9.0694 52.3859 7.14215C50.8137 6.47814 49.5785 7.66041 49.5785 9.44192C49.4823 13.8146 49.4983 20.1146 50.3807 22.4953C51.0102 24.4924 52.2524 26.2355 53.9278 27.4729C55.6032 28.7101 57.6249 29.3775 59.7007 29.3784C61.831 29.3832 63.9062 28.6961 65.62 27.4188C67.2249 26.1732 68.4393 24.486 69.117 22.5601C69.9994 20.2442 69.9672 13.847 69.855 9.40952Z" fill="white"/>
<path fill-rule="evenodd" clip-rule="evenodd" d="M59.6533 0C60.4115 0 61.1528 0.227013 61.7833 0.65233C62.4137 1.07765 62.9051 1.68217 63.1953 2.38945C63.4856 3.09672 63.5614 3.87499 63.4135 4.62583C63.2655 5.37668 62.9005 6.06637 62.3642 6.6077C61.8281 7.14902 61.145 7.51766 60.4012 7.66702C59.6575 7.81637 58.8867 7.73972 58.1861 7.44675C57.4856 7.15379 56.8867 6.65768 56.4655 6.02114C56.0442 5.3846 55.8193 4.63625 55.8193 3.87069C55.8193 2.84413 56.2233 1.8596 56.9423 1.1337C57.6613 0.407804 58.6364 0 59.6533 0Z" fill="#FCAD15"/>
</g>
<defs>
<clipPath id="clip0_749_1442">
<rect width="117" height="30" fill="white" transform="translate(0.796875)"/>
</clipPath>
</defs>
</svg>
